<svg xmlns="http://www.w3.org/2000/svg" xmlns:xlink="http://www.w3.org/1999/xlink" width="268px" height="134px" viewBox="0 0 134 134" version="1.1">
<g id="surface3">
<path style=" stroke:none;fill-rule:nonzero;fill:rgb(50.196078%,15.294118%,42.352941%);fill-opacity:1;" d="M 67 0 C 29.996094 0 0 29.996094 0 67 C 0 104.003906 29.996094 134 67 134 C 104.003906 134 134 104.003906 134 67 C 134 29.996094 104.003906 0 67 0 "/>
<path style=" stroke:none;fill-rule:nonzero;fill:rgb(100%,100%,100%);fill-opacity:1;" d="M 93.214844 40.421875 C 92.136719 39.710938 91.496094 38.503906 91.511719 37.214844 L 91.511719 27.191406 C 91.441406 24.277344 89.390625 21.785156 86.542969 21.160156 C 80.5625 19.414062 74.484375 18.015625 68.339844 16.972656 C 67.390625 16.773438 66.410156 16.78125 65.464844 17 C 60.019531 18.203125 54.550781 19.261719 49.160156 20.769531 C 45.980469 21.636719 42.628906 23.394531 42.628906 27.191406 L 42.628906 37.128906 C 42.660156 38.4375 42.003906 39.667969 40.898438 40.367188 C 38.953125 41.566406 37.765625 43.691406 37.769531 45.980469 L 37.769531 88.246094 C 37.789062 90.21875 38.691406 92.082031 40.226562 93.324219 L 50.921875 101.140625 L 42.292969 117.167969 L 49.328125 117.167969 L 50.558594 114.960938 L 83.582031 114.960938 L 84.839844 117.167969 L 91.816406 117.167969 L 83.246094 101.140625 L 83.277344 101.140625 L 93.746094 93.410156 C 95.3125 92.152344 96.222656 90.253906 96.230469 88.246094 L 96.230469 45.980469 C 96.230469 43.734375 95.09375 41.644531 93.214844 40.421875 Z M 72.136719 24.789062 C 72.136719 24.15625 72.425781 23.558594 72.917969 23.160156 C 73.410156 22.765625 74.058594 22.613281 74.675781 22.753906 L 85.007812 24.929688 C 85.964844 25.117188 86.65625 25.960938 86.652344 26.941406 L 86.652344 33.082031 C 86.652344 33.707031 86.375 34.296875 85.894531 34.699219 C 85.414062 35.097656 84.78125 35.261719 84.167969 35.148438 L 73.839844 33.136719 C 72.855469 32.9375 72.144531 32.078125 72.136719 31.070312 Z M 77.914062 104.769531 L 56.167969 104.769531 L 58.011719 101.421875 L 76.046875 101.421875 Z M 67 46.453125 C 71.171875 46.445312 74.558594 49.820312 74.566406 53.992188 C 74.574219 58.160156 71.199219 61.546875 67.027344 61.554688 C 62.855469 61.5625 59.46875 58.1875 59.460938 54.019531 C 59.457031 52.015625 60.25 50.09375 61.664062 48.675781 C 63.078125 47.253906 64.996094 46.457031 67 46.453125 Z M 47.988281 26.941406 C 47.976562 25.949219 48.6875 25.09375 49.664062 24.929688 L 59.964844 22.753906 C 60.582031 22.617188 61.222656 22.765625 61.714844 23.164062 C 62.203125 23.5625 62.484375 24.160156 62.476562 24.789062 L 62.476562 31.070312 C 62.484375 32.070312 61.78125 32.9375 60.800781 33.136719 L 50.472656 35.148438 C 49.859375 35.261719 49.226562 35.097656 48.746094 34.699219 C 48.265625 34.296875 47.988281 33.707031 47.988281 33.082031 Z M 50.222656 93.6875 C 47.945312 93.695312 45.886719 92.324219 45.015625 90.222656 C 44.140625 88.117188 44.621094 85.695312 46.230469 84.085938 C 47.839844 82.476562 50.265625 81.996094 52.367188 82.867188 C 54.46875 83.742188 55.839844 85.800781 55.832031 88.078125 C 55.832031 91.175781 53.320312 93.6875 50.222656 93.6875 Z M 52.398438 111.582031 L 54.324219 108.121094 L 79.785156 108.121094 L 81.710938 111.582031 Z M 83.722656 93.6875 C 81.445312 93.695312 79.386719 92.324219 78.515625 90.222656 C 77.640625 88.117188 78.121094 85.695312 79.730469 84.085938 C 81.339844 82.476562 83.765625 81.996094 85.867188 82.867188 C 87.96875 83.742188 89.339844 85.800781 89.332031 88.078125 C 89.332031 91.175781 86.820312 93.6875 83.722656 93.6875 Z M 83.722656 93.6875 "/>
</g>
</svg>